<svg xmlns="http://www.w3.org/2000/svg" xmlns:xlink="http://www.w3.org/1999/xlink" width="308" zoomAndPan="magnify" viewBox="0 0 230.87999 211.499994" height="282" preserveAspectRatio="xMidYMid meet" version="1.0"><defs><clipPath id="eb01bfc8a8"><path d="M 0.210938 0 L 229.917969 0 L 229.917969 211 L 0.210938 211 Z M 0.210938 0 " clip-rule="nonzero"/></clipPath><clipPath id="7e3a39f772"><path d="M 59.804688 107.433594 L 94.160156 107.433594 L 94.160156 141.789062 L 59.804688 141.789062 Z M 59.804688 107.433594 " clip-rule="nonzero"/></clipPath><clipPath id="6a6be04006"><path d="M 76.980469 107.433594 C 67.496094 107.433594 59.804688 115.125 59.804688 124.613281 C 59.804688 134.097656 67.496094 141.789062 76.980469 141.789062 C 86.46875 141.789062 94.160156 134.097656 94.160156 124.613281 C 94.160156 115.125 86.46875 107.433594 76.980469 107.433594 Z M 76.980469 107.433594 " clip-rule="nonzero"/></clipPath><clipPath id="20a102f803"><path d="M 0.804688 0.433594 L 35.160156 0.433594 L 35.160156 34.789062 L 0.804688 34.789062 Z M 0.804688 0.433594 " clip-rule="nonzero"/></clipPath><clipPath id="8bfcb845dd"><path d="M 17.980469 0.433594 C 8.496094 0.433594 0.804688 8.125 0.804688 17.613281 C 0.804688 27.097656 8.496094 34.789062 17.980469 34.789062 C 27.46875 34.789062 35.160156 27.097656 35.160156 17.613281 C 35.160156 8.125 27.46875 0.433594 17.980469 0.433594 Z M 17.980469 0.433594 " clip-rule="nonzero"/></clipPath><clipPath id="200ff206ab"><rect x="0" width="36" y="0" height="35"/></clipPath><clipPath id="6c8d6be2ba"><path d="M 121.8125 109.257812 L 183.914062 109.257812 L 183.914062 144.425781 L 121.8125 144.425781 Z M 121.8125 109.257812 " clip-rule="nonzero"/></clipPath></defs><path fill="#0f1729" d="M 172.933594 129.539062 C 172.847656 132.523438 171.679688 134.363281 169.242188 135.453125 C 166.738281 136.570312 164.804688 135.589844 163.21875 133.796875 C 162.316406 132.773438 161.746094 131.449219 161.0625 130.242188 C 159.355469 127.238281 156.875 125.132812 153.371094 125.15625 C 149.96875 125.179688 147.164062 126.777344 145.480469 129.945312 C 144.976562 130.894531 144.476562 131.855469 143.871094 132.738281 C 141.941406 135.570312 139.273438 136.527344 136.730469 135.359375 C 133.929688 134.074219 132.722656 131.402344 133.667969 128.066406 C 135.683594 120.949219 140.488281 116.496094 147.445312 114.417969 C 157.691406 111.355469 169.277344 117.460938 172.359375 127.394531 C 172.609375 128.207031 172.800781 129.042969 172.933594 129.539062 Z M 172.933594 129.539062 " fill-opacity="1" fill-rule="nonzero"/><g clip-path="url(#eb01bfc8a8)"><path fill="#0f1729" d="M 230 120.601562 C 229.921875 110.992188 224.515625 104.234375 215.085938 102.226562 C 213.035156 101.789062 212.257812 100.898438 211.792969 99.070312 C 205.242188 73.394531 179.195312 56.457031 156.800781 57.007812 C 145.054688 57.292969 133.292969 57.058594 121.054688 57.058594 C 121.054688 49.722656 121 42.828125 121.136719 35.933594 C 121.152344 35.183594 122.125 34.1875 122.90625 33.761719 C 129.144531 30.335938 133.347656 23.335938 132.53125 17.066406 C 131.496094 9.113281 127.351562 3.402344 119.605469 0.863281 C 118.117188 0.375 116.617188 0.117188 115.136719 0.0625 C 113.652344 0.117188 112.152344 0.375 110.664062 0.863281 C 102.917969 3.402344 98.773438 9.113281 97.742188 17.066406 C 96.925781 23.335938 101.128906 30.335938 107.367188 33.761719 C 108.144531 34.1875 109.121094 35.183594 109.136719 35.933594 C 109.273438 42.828125 109.214844 49.722656 109.214844 57.058594 C 96.976562 57.058594 85.21875 57.292969 73.46875 57.007812 C 51.078125 56.457031 25.03125 73.394531 18.480469 99.070312 C 18.011719 100.898438 17.238281 101.789062 15.183594 102.226562 C 5.757812 104.234375 0.351562 110.992188 0.273438 120.601562 C 0.210938 128.484375 0.238281 136.371094 0.335938 144.253906 C 0.445312 152.894531 6.042969 160.035156 14.476562 162.101562 C 16.585938 162.617188 17.417969 163.535156 17.894531 165.605469 C 23.890625 191.648438 47.972656 210.78125 74.648438 210.792969 C 88.144531 210.796875 101.640625 210.816406 115.136719 210.816406 C 128.632812 210.816406 142.128906 210.796875 155.625 210.792969 C 182.300781 210.78125 206.382812 191.648438 212.378906 165.605469 C 212.855469 163.535156 213.6875 162.617188 215.792969 162.101562 C 224.226562 160.035156 229.828125 152.894531 229.933594 144.253906 C 230.035156 136.371094 230.0625 128.484375 230 120.601562 Z M 201.964844 148.984375 C 201.84375 153.683594 201.25 158.480469 200.066406 163.023438 C 194.894531 182.855469 178.449219 196.792969 158.015625 197.816406 C 143.757812 198.53125 129.433594 197.960938 115.136719 197.957031 C 100.839844 197.960938 86.515625 198.53125 72.257812 197.816406 C 51.820312 196.792969 35.375 182.855469 30.207031 163.023438 C 29.023438 158.480469 28.429688 153.683594 28.308594 148.984375 C 28.035156 138.300781 28.15625 127.601562 28.238281 116.90625 C 28.449219 90.011719 49.058594 69.542969 75.964844 69.511719 C 89.023438 69.496094 102.078125 69.488281 115.136719 69.488281 C 128.191406 69.488281 141.25 69.496094 154.308594 69.511719 C 181.210938 69.542969 201.824219 90.011719 202.03125 116.90625 C 202.117188 127.601562 202.238281 138.300781 201.964844 148.984375 Z M 201.964844 148.984375 " fill-opacity="1" fill-rule="nonzero"/></g><path fill="#0f1729" d="M 142.492188 156.601562 C 139.929688 155.488281 137.039062 156.351562 135.03125 158.839844 C 134.898438 159.007812 134.753906 159.171875 134.644531 159.355469 C 130.71875 165.898438 123.085938 169.714844 115.136719 169.910156 C 107.183594 169.714844 99.554688 165.898438 95.628906 159.355469 C 95.519531 159.171875 95.375 159.007812 95.238281 158.839844 C 93.234375 156.351562 90.34375 155.488281 87.78125 156.601562 C 85.140625 157.75 83.609375 160.722656 84.648438 163.914062 C 85.355469 166.085938 86.648438 168.222656 88.164062 169.953125 C 95.320312 178.113281 104.589844 181.605469 115.136719 181.960938 C 125.683594 181.605469 134.953125 178.113281 142.109375 169.953125 C 143.625 168.222656 144.917969 166.085938 145.625 163.914062 C 146.664062 160.722656 145.132812 157.75 142.492188 156.601562 Z M 142.492188 156.601562 " fill-opacity="1" fill-rule="nonzero"/><path fill="#0f1729" d="M 93.671875 125.023438 C 93.757812 115.539062 86.449219 108.058594 77.054688 108.015625 C 68.140625 107.976562 60.648438 115.484375 60.589844 124.523438 C 60.523438 134.277344 67.480469 141.492188 76.992188 141.535156 C 86.339844 141.578125 93.585938 134.40625 93.671875 125.023438 Z M 93.671875 125.023438 " fill-opacity="1" fill-rule="nonzero"/><g clip-path="url(#7e3a39f772)"><g clip-path="url(#6a6be04006)"><g transform="matrix(1, 0, 0, 1, 59, 107)"><g clip-path="url(#200ff206ab)"><g clip-path="url(#20a102f803)"><g clip-path="url(#8bfcb845dd)"><path fill="#16a249" d="M 0.804688 0.433594 L 35.160156 0.433594 L 35.160156 34.789062 L 0.804688 34.789062 Z M 0.804688 0.433594 " fill-opacity="1" fill-rule="nonzero"/></g></g></g></g></g></g><path fill="#2bd1ed" d="M 173.078125 129.613281 C 172.992188 132.640625 171.808594 134.503906 169.335938 135.605469 C 166.792969 136.742188 164.835938 135.746094 163.230469 133.929688 C 162.3125 132.890625 161.734375 131.550781 161.042969 130.328125 C 159.3125 127.277344 156.796875 125.144531 153.242188 125.167969 C 149.792969 125.191406 146.953125 126.8125 145.246094 130.023438 C 144.734375 130.984375 144.226562 131.957031 143.613281 132.855469 C 141.65625 135.726562 138.953125 136.695312 136.375 135.515625 C 133.535156 134.210938 132.3125 131.5 133.269531 128.117188 C 135.3125 120.902344 140.183594 116.386719 147.238281 114.28125 C 157.625 111.175781 169.371094 117.367188 172.496094 127.4375 C 172.75 128.261719 172.941406 129.109375 173.078125 129.613281 Z M 173.078125 129.613281 " fill-opacity="1" fill-rule="nonzero"/><g clip-path="url(#6c8d6be2ba)"><path fill="#2bd1ed" d="M 230.933594 120.550781 C 230.855469 110.808594 225.371094 103.957031 215.8125 101.921875 C 213.734375 101.476562 212.945312 100.574219 212.472656 98.722656 C 205.832031 72.691406 179.425781 55.519531 156.722656 56.074219 C 144.8125 56.367188 132.890625 56.128906 120.480469 56.128906 C 120.480469 48.691406 120.425781 41.699219 120.5625 34.710938 C 120.578125 33.949219 121.566406 32.941406 122.355469 32.507812 C 128.683594 29.035156 132.941406 21.941406 132.117188 15.582031 C 131.066406 7.519531 126.867188 1.730469 119.011719 -0.84375 C 117.503906 -1.339844 115.984375 -1.601562 114.480469 -1.65625 C 112.976562 -1.601562 111.457031 -1.339844 109.945312 -0.84375 C 102.09375 1.730469 97.894531 7.519531 96.84375 15.582031 C 96.019531 21.941406 100.277344 29.035156 106.605469 32.507812 C 107.394531 32.941406 108.382812 33.949219 108.398438 34.710938 C 108.535156 41.699219 108.476562 48.691406 108.476562 56.128906 C 96.070312 56.128906 84.148438 56.367188 72.238281 56.074219 C 49.535156 55.519531 23.128906 72.691406 16.488281 98.722656 C 16.015625 100.574219 15.226562 101.476562 13.148438 101.921875 C 3.589844 103.957031 -1.894531 110.808594 -1.972656 120.550781 C -2.035156 128.542969 -2.007812 136.539062 -1.90625 144.53125 C -1.796875 153.289062 3.878906 160.527344 12.429688 162.625 C 14.566406 163.148438 15.410156 164.078125 15.894531 166.175781 C 21.972656 192.578125 46.386719 211.976562 73.433594 211.988281 C 87.113281 211.992188 100.796875 212.011719 114.480469 212.011719 C 128.164062 212.011719 141.847656 211.992188 155.527344 211.988281 C 182.574219 211.976562 206.988281 192.578125 213.066406 166.175781 C 213.550781 164.078125 214.394531 163.148438 216.53125 162.625 C 225.082031 160.527344 230.757812 153.289062 230.867188 144.53125 C 230.96875 136.539062 230.996094 128.542969 230.933594 120.550781 Z M 202.511719 149.328125 C 202.386719 154.089844 201.785156 158.953125 200.582031 163.558594 C 195.34375 183.667969 178.671875 197.796875 157.953125 198.832031 C 143.496094 199.558594 128.972656 198.980469 114.480469 198.976562 C 99.988281 198.980469 85.464844 199.558594 71.007812 198.832031 C 50.289062 197.796875 33.617188 183.667969 28.375 163.558594 C 27.175781 158.953125 26.574219 154.089844 26.449219 149.328125 C 26.171875 138.492188 26.296875 127.648438 26.382812 116.804688 C 26.59375 89.535156 47.488281 68.789062 74.769531 68.753906 C 88.003906 68.738281 101.242188 68.730469 114.480469 68.730469 C 127.71875 68.730469 140.957031 68.738281 154.191406 68.753906 C 181.472656 68.789062 202.367188 89.535156 202.578125 116.804688 C 202.664062 127.648438 202.789062 138.492188 202.511719 149.328125 Z M 202.511719 149.328125 " fill-opacity="1" fill-rule="nonzero"/></g></svg>