<svg xmlns:svg="http://www.w3.org/2000/svg" xmlns="http://www.w3.org/2000/svg" width="1003" height="255" viewBox="-0.324 -0.233 59 15" xml:space="preserve">
<defs id="defs4">

	
	
</defs>
<path d="M 55.219,1.515 C 55.219,0.838 55.727,0.322 56.381,0.322 C 57.027,0.322 57.537,0.838 57.537,1.515 C 57.537,2.204 57.027,2.712 56.381,2.712 C 55.727,2.712 55.219,2.204 55.219,1.515 M 56.381,2.949 C 57.16,2.949 57.828,2.344 57.828,1.515 C 57.828,0.695 57.16,0.086 56.381,0.086 C 55.595,0.086 54.93,0.695 54.93,1.515 C 54.93,2.344 55.595,2.949 56.381,2.949 M 56.076,1.628 L 56.365,1.628 L 56.803,2.344 L 57.081,2.344 L 56.61,1.616 C 56.855,1.587 57.041,1.459 57.041,1.163 C 57.041,0.838 56.848,0.695 56.456,0.695 L 55.827,0.695 L 55.827,2.344 L 56.075,2.344 L 56.075,1.628 L 56.076,1.628 z M 56.076,1.417 L 56.076,0.908 L 56.419,0.908 C 56.594,0.908 56.78,0.944 56.78,1.148 C 56.78,1.402 56.59,1.417 56.378,1.417 L 56.076,1.417 L 56.076,1.417 z " style="fill:#009fc2" id="path8"/><path d="M 9.775,0 L 9.771,0 C 2.819,0 1.814,-0.215 0.492,7.289 L 0.489,7.303 C -0.834,14.807 0.246,14.591 7.198,14.591 L 7.203,14.591 C 8.141,14.591 8.963,14.594 9.699,14.583 L 12.165,14.413 C 14.801,13.973 15.548,12.462 16.458,7.303 L 16.46,7.288 C 17.783,-0.215 16.728,0 9.775,0 M 10.548,9.816 L 5.519,9.816 L 6.408,4.787 L 11.434,4.787 L 10.548,9.816 z " style="fill:#009fc2" id="path10"/>
<path d="M 54.674,0.104 L 48.64,0.104 L 45.063,3.677 L 42.748,0.104 L 36.711,0.104 L 41.399,7.339 L 35.812,12.924 L 35.722,0.111 L 31.058,0.111 L 26.71,7.611 L 24.998,0.111 L 20.335,0.111 L 15.131,14.577 L 19.373,14.577 L 21.901,7.648 L 24.004,14.536 L 26.972,14.536 L 31.495,7.648 L 31.582,14.577 L 40.196,14.577 L 43.771,11.002 L 46.086,14.577 L 52.122,14.577 L 47.436,7.339 L 54.674,0.104 z " style="fill:#009fc2" id="polygon12"/>
<title>iceland allshare pi</title></svg>
